<svg viewBox="0 0 512 512.00008" xmlns="http://www.w3.org/2000/svg"><path d="m374.0625 205.304688c14.289062-39.257813 25.4375-84.722657 29.816406-121.613282 5.828125-49.058594-.371094-75.152344-19.503906-82.117187-19.132812-6.960938-40.65625 9.042969-67.726562 50.367187-20.355469 31.078125-41.042969 73.070313-55.332032 112.328125-1.929687 5.308594-3.707031 10.480469-5.355468 15.542969-1.652344-5.0625-3.425782-10.234375-5.355469-15.542969-14.289063-39.257812-34.972657-81.25-55.332031-112.328125-27.070313-41.324218-48.589844-57.332031-67.726563-50.367187-19.132813 6.964843-25.332031 33.058593-19.503906 82.117187 4.378906 36.890625 15.527343 82.355469 29.816406 121.613282 4.574219 12.574218 9.351563 24.183593 14.28125 34.738281h-91.148437v29.992187h59.988281v241.964844h269.960937v-241.964844h59.988282v-29.992187h-91.144532c4.925782-10.554688 9.703125-22.164063 14.277344-34.738281zm-36.722656-130.039063c18.195312-29.195313 30.628906-40.632813 36.246094-44.046875 2.109374 6.226562 4.277343 22.976562-.546876 57.039062-4.746093 33.480469-14.648437 72.40625-27.160156 106.789063-6.246094 17.15625-12.816406 32.242187-19.585937 44.996094h-53.796875c2.136718-18.191407 7.898437-40.480469 17.007812-65.511719 12.515625-34.386719 29.953125-70.566406 47.835938-99.265625zm-171.296875 119.78125c-12.511719-34.386719-22.414063-73.308594-27.15625-106.789063-4.828125-34.0625-2.660157-50.8125-.550781-57.042968 5.617187 3.414062 18.050781 14.855468 36.246093 44.050781 17.882813 28.699219 35.320313 64.878906 47.835938 99.261719 9.109375 25.035156 14.871093 47.320312 17.007812 65.515625h-53.796875c-6.769531-12.753907-13.339844-27.839844-19.585937-44.996094zm-15.066407 286.957031v-151.976562h209.96875v151.976562zm209.96875-181.972656h-209.96875v-29.996094h209.96875zm0 0"/><path d="m29.996094 120.058594h29.996094v29.996094h-29.996094zm0 0"/><path d="m29.996094 180.050781h29.996094v29.996094h-29.996094zm0 0"/><path d="m0 150.054688h29.996094v29.996093h-29.996094zm0 0"/><path d="m59.992188 150.054688h29.996093v29.996093h-29.996093zm0 0"/><path d="m451.929688 120.058594h29.996093v29.996094h-29.996093zm0 0"/><path d="m451.929688 180.050781h29.996093v29.996094h-29.996093zm0 0"/><path d="m421.9375 150.054688h29.992188v29.996093h-29.992188zm0 0"/><path d="m481.925781 150.054688h29.996094v29.996093h-29.996094zm0 0"/></svg>